<?xml version="1.0" encoding="UTF-8" standalone="no"?>
<!-- Generator: Adobe Illustrator 19.2.1, SVG Export Plug-In . SVG Version: 6.00 Build 0)  -->

<svg
   xmlns:dc="http://purl.org/dc/elements/1.1/"
   xmlns:cc="http://creativecommons.org/ns#"
   xmlns:rdf="http://www.w3.org/1999/02/22-rdf-syntax-ns#"
   xmlns:svg="http://www.w3.org/2000/svg"
   xmlns="http://www.w3.org/2000/svg"
   xmlns:sodipodi="http://sodipodi.sourceforge.net/DTD/sodipodi-0.dtd"
   xmlns:inkscape="http://www.inkscape.org/namespaces/inkscape"
   version="1.1"
   id="Layer_1"
   x="0px"
   y="0px"
   viewBox="0 0 51 150"
   style="enable-background:new 0 0 51 150;"
   xml:space="preserve"
   sodipodi:docname="icon.svg"
   inkscape:version="0.92.5 (2060ec1f9f, 2020-04-08)"><metadata
   id="metadata4098"><rdf:RDF><cc:Work
       rdf:about=""><dc:format>image/svg+xml</dc:format><dc:type
         rdf:resource="http://purl.org/dc/dcmitype/StillImage" /><dc:title></dc:title></cc:Work></rdf:RDF></metadata><defs
   id="defs4096" /><sodipodi:namedview
   pagecolor="#ffffff"
   bordercolor="#666666"
   borderopacity="1"
   objecttolerance="10"
   gridtolerance="10"
   guidetolerance="10"
   inkscape:pageopacity="0"
   inkscape:pageshadow="2"
   inkscape:window-width="1349"
   inkscape:window-height="947"
   id="namedview4094"
   showgrid="false"
   inkscape:zoom="1.66"
   inkscape:cx="120.56629"
   inkscape:cy="76.691604"
   inkscape:window-x="1235"
   inkscape:window-y="212"
   inkscape:window-maximized="0"
   inkscape:current-layer="Layer_1" />
<style
   type="text/css"
   id="style3967">
	.st0{display:none;fill:none;stroke:#FFFFFF;stroke-width:2;stroke-linecap:round;stroke-miterlimit:10;}
	.st1{fill:#A2F1FF;}
	.st2{fill:#FF868A;}
	.st3{fill:#FFFFFF;}
	.st4{fill:#58595B;}
	.st5{fill:#E5E6E7;}
	.st6{fill:#A3D3E3;}
	.st7{fill:#DD797F;}
	.st8{fill:#6D6E71;}
	.st9{fill:#4A4A4B;}
	.st10{fill:#414042;}
	.st11{fill:#E75C54;}
	.st12{fill:#FFE336;}
	.st13{fill:#56C681;}
	.st14{fill:#F37970;}
	.st15{fill:#FFEE85;}
	.st16{fill:#79D29B;}
	.st17{fill:#C44242;}
	.st18{fill:#FFBC13;}
	.st19{fill:#3AAB64;}
	.st20{fill:#4E4D4F;}
	.st21{fill:#63CF83;}
	.st22{fill:#FFE77A;}
	.st23{fill:#4FC37B;}
	.st24{fill:#FCDA71;}
	.st25{fill:#F0F1F1;}
	.st26{fill:#E38026;}
	.st27{fill:#BBBDBF;}
	.st28{fill:#7CC9B4;}
	.st29{fill:#8BDBC7;}
	.st30{fill:#3EBDA4;}
	.st31{fill:#4E706E;}
	.st32{fill:#3EAD95;}
	.st33{fill:#BA9C44;}
	.st34{fill:#B0933E;}
	.st35{fill:#F2C84C;}
	.st36{fill:#3A3A3B;}
	.st37{fill:#EF5E90;}
	.st38{fill:#363637;}
	.st39{fill:#A87C50;}
	.st40{fill:#594A42;}
	.st41{fill:#FFFDE7;}
	.st42{fill:#CAA94C;}
	.st43{fill:#D0D2D3;}
	.st44{fill:#8F6A44;}
	.st45{fill:#483B34;}
	.st46{fill:#AE923D;}
	.st47{fill:#D9D9CA;}
	.st48{fill:#BB3D45;}
	.st49{fill:#42362F;}
	.st50{fill:#10CD88;}
	.st51{fill:#166BFF;}
	.st52{fill:#FDEA41;}
	.st53{fill:#FDE140;}
	.st54{fill:#FDCF3E;}
	.st55{fill:#FFB13F;}
	.st56{fill:#FFE65D;}
	.st57{fill:#FF8432;}
	.st58{fill:#3B4B92;}
	.st59{fill:#69CA6D;}
	.st60{fill:#54C16D;}
	.st61{fill:#32A373;}
	.st62{fill:#00D869;}
	.st63{fill:#00AB65;}
	.st64{fill:#00912A;}
	.st65{fill:#D6AF67;}
	.st66{fill:#8F8056;}
	.st67{fill:#4C4D4F;}
	.st68{fill:#B19254;}
	.st69{fill:#56585A;}
	.st70{fill:#7E724C;}
	.st71{fill:#1A8200;}
	.st72{fill:#2F6000;}
	.st73{fill:#053100;}
	.st74{fill:#092400;}
	.st75{fill:#011200;}
	.st76{fill:#788BD0;}
	.st77{fill:#2E2A2B;}
	.st78{fill:#393435;}
	.st79{fill:#231F20;}
	.st80{fill:#FFA323;}
	.st81{fill:#FFB124;}
	.st82{fill:#FF8F19;}
	.st83{fill:#76B620;}
	.st84{fill:#9CBE47;}
	.st85{fill:#F9DF37;}
	.st86{fill:#F9CC37;}
	.st87{fill:#7C9C47;}
	.st88{fill:#807947;}
	.st89{fill:#C6A66C;}
	.st90{fill:#B89B65;}
	.st91{fill:#493C35;}
	.st92{fill:#FFFFE8;}
	.st93{fill:#FFF8D6;}
	.st94{fill:#603913;}
</style>
<rect
   id="rect4100"
   width="161.14458"
   height="161.14458"
   x="-55.361458"
   y="-4.6024179"
   style="fill:#6fd447;fill-opacity:1;stroke-width:1.46986914"
   inkscape:export-filename="/home/roisin/Desktop/icon.png"
   inkscape:export-xdpi="96"
   inkscape:export-ydpi="96" /><g
   id="g4091"
   inkscape:export-filename="/home/roisin/Desktop/icon.png"
   inkscape:export-xdpi="96"
   inkscape:export-ydpi="96">
	<path
   class="st71"
   d="M36.83,45.03c5.97,0.43,10.68,5.4,10.68,11.48c0,6.15-4.83,11.18-10.92,11.49h0.51c4.64,0,8.4,3.81,8.4,8.5   c0,4.69-3.76,8.5-8.4,8.5h-2.8c4.55,0.11,8.2,3.87,8.2,8.5c0,4.35-3.24,7.94-7.41,8.44c-0.32,0.04-0.65,0.06-0.99,0.06l-0.06,0.22   c2.29,0.66,3.96,2.77,3.96,5.28c0,3.04-2.46,5.5-5.5,5.5H25h-7.5c-3.04,0-5.5-2.46-5.5-5.5c0-2.51,1.67-4.62,3.96-5.28L15.9,102   c-0.34,0-0.67-0.02-0.99-0.06c-4.17-0.5-7.41-4.09-7.41-8.44c0-4.63,3.65-8.39,8.2-8.5h-2.8c-4.64,0-8.4-3.81-8.4-8.5   c0-4.69,3.76-8.5,8.4-8.5h0.51C7.33,67.69,2.49,62.66,2.49,56.51c0-6.08,4.72-11.05,10.68-11.48h-0.16C6.93,45.03,2,40.1,2,34.01   c0-5.49,4.02-10.04,9.27-10.87L11.25,23c-0.8-1.84-1.25-3.87-1.25-6c0-4.14,1.68-7.89,4.4-10.6C17.11,3.68,20.86,2,25,2   c8.28,0,15,6.72,15,15c0,2.13-0.45,4.16-1.25,6l-0.02,0.14C43.98,23.97,48,28.52,48,34.01c0,6.09-4.93,11.02-11.01,11.02H36.83"
   id="path3969" />
	<g
   id="g4089">
		<path
   class="st72"
   d="M27,115h-4v33c0,1.105,0.895,2,2,2c1.105,0,2-0.896,2-2V115"
   id="path3971" />
		<path
   class="st73"
   d="M27,98.236l-1.105,0.553C25.613,98.93,25.307,99,25,99c-0.306,0-0.613-0.07-0.894-0.211L23,98.236V111h4    V98.236 M27,82.237l-1.105,0.553C25.613,82.93,25.307,83,25,83c-0.306,0-0.613-0.071-0.894-0.211L23,82.237v11.527l2,1l2-1V82.237     M27,63.236l-1.105,0.553C25.613,63.93,25.307,64,25,64c-0.306,0-0.613-0.07-0.894-0.211L23,63.236v14.527l2,1l2-1V63.236     M27,40.236l-1.105,0.553C25.613,40.93,25.307,41,25,41c-0.306,0-0.613-0.07-0.894-0.211L23,40.236v18.528l2,1l2-1V40.236 M25,11    c-1.104,0-2,0.896-2,2v22.764l2,1l2-1V13C27,11.896,26.105,11,25,11"
   id="path3973" />
		<path
   class="st73"
   d="M32,43c-1.105,0-2,0.896-2,2c0,0.005,0,0.01,0,0.015c0.008-1.098,0.901-1.985,2-1.985h4.858    C36.035,43.005,32.042,43,32,43"
   id="path3975" />
		<path
   class="st72"
   d="M43.494,45.283c-0.693,0.402-1.425,0.741-2.19,1.011c3.688,1.918,6.206,5.77,6.206,10.216    c0,4.512-2.601,8.422-6.391,10.306c0.716,0.304,1.392,0.687,2.016,1.138c3.841-2.394,6.374-6.635,6.374-11.444    C49.51,51.872,47.126,47.723,43.494,45.283"
   id="path3977" />
		<path
   class="st73"
   d="M35.861,69.896C36.061,69.964,36.276,70,36.498,70l0,0C36.275,70,36.061,69.963,35.861,69.896     M35.846,69.891c0.004,0.001,0.008,0.003,0.013,0.004C35.854,69.894,35.85,69.892,35.846,69.891 M35.475,69.718    C35.476,69.718,35.476,69.718,35.475,69.718C35.476,69.718,35.476,69.718,35.475,69.718 M35.455,69.705    c0.001,0,0.001,0.001,0.002,0.001C35.456,69.706,35.455,69.706,35.455,69.705 M35.434,69.692c0.001,0.001,0.002,0.001,0.003,0.002    C35.436,69.694,35.435,69.693,35.434,69.692 M35.413,69.679c0.001,0.001,0.003,0.002,0.004,0.003    C35.416,69.681,35.415,69.68,35.413,69.679 M35.392,69.665c0.002,0.001,0.004,0.003,0.006,0.004    C35.396,69.668,35.394,69.667,35.392,69.665 M35.371,69.651c0.003,0.002,0.006,0.004,0.009,0.006    C35.376,69.655,35.373,69.653,35.371,69.651 M35.348,69.635c0.004,0.003,0.008,0.006,0.012,0.008    C35.356,69.641,35.352,69.638,35.348,69.635 M34.613,68.665c0.138,0.394,0.396,0.73,0.728,0.966    C35.009,69.393,34.751,69.057,34.613,68.665 M34.606,68.644c0.002,0.007,0.005,0.014,0.007,0.021    C34.611,68.658,34.608,68.651,34.606,68.644 M34.599,68.623c0.002,0.005,0.003,0.01,0.005,0.015    C34.602,68.633,34.601,68.628,34.599,68.623 M34.592,68.602c0.001,0.003,0.002,0.006,0.003,0.009    C34.594,68.608,34.593,68.605,34.592,68.602 M34.586,68.582c0,0.001,0,0.002,0.001,0.002    C34.587,68.583,34.586,68.583,34.586,68.582 M41.304,46.294c-1.35,0.476-2.802,0.736-4.313,0.736h-0.236    c4.915,0.39,8.755,4.54,8.755,9.48c0,5.063-4.002,9.233-9.112,9.493c-1.036,0.053-1.848,0.884-1.896,1.899    C34.554,66.843,35.428,66,36.5,66h0.6c1.424,0,2.782,0.291,4.02,0.816c3.79-1.885,6.391-5.794,6.391-10.306    C47.51,52.064,44.992,48.212,41.304,46.294"
   id="path3979" />
		<path
   class="st72"
   d="M41.328,21.738c-0.186,0.639-0.41,1.269-0.672,1.89C44.932,25.136,48,29.214,48,34.01    c0,4.528-2.726,8.415-6.623,10.111c0.743,0.325,1.451,0.715,2.117,1.162C47.381,43.029,50,38.82,50,34.01    C50,28.372,46.468,23.53,41.328,21.738"
   id="path3981" />
		<path
   class="st73"
   d="M30,45.015c0,0.005,0,0.01,0,0.015c0,1.104,0.896,2,2,2h4.754c-0.023-0.002-0.045-0.004-0.068-0.005    C36.336,47.011,32.508,47,32,47C30.901,47,30.008,46.113,30,45.015 M36.964,21.001c-0.801,0-1.584,0.073-2.333,0.214    c-1.086,0.204-1.801,1.25-1.597,2.335c0.181,0.96,1.017,1.632,1.961,1.632c0.123,0,0.248-0.011,0.374-0.035    C35.875,25.05,36.409,25,36.959,25c0.475,0,0.963,0.037,1.458,0.116C42.811,25.81,46,29.551,46,34.01    c0,4.973-4.042,9.02-9.009,9.02h-0.133c0.055,0.002,0.095,0.003,0.12,0.005c1.555,0.112,3.036,0.49,4.4,1.086    C45.274,42.425,48,38.538,48,34.01c0-4.796-3.068-8.874-7.343-10.382c-0.024,0.057-0.048,0.113-0.073,0.17    c-0.327,0.753-1.063,1.203-1.835,1.203c-0.267,0-0.537-0.053-0.796-0.167c-1.014-0.44-1.478-1.618-1.037-2.631    c0.171-0.393,0.322-0.792,0.452-1.196C37.233,21.003,37.099,21.001,36.964,21.001"
   id="path3983" />
		<path
   class="st74"
   d="M41.377,44.121c-1.344,0.585-2.828,0.909-4.387,0.909h-0.16c1.605,0.116,3.118,0.559,4.474,1.264    c0.765-0.27,1.498-0.609,2.19-1.011C42.828,44.836,42.12,44.446,41.377,44.121"
   id="path3985" />
		<path
   class="st75"
   d="M36.858,43.03H32c-1.1,0-1.992,0.888-2,1.985C30.008,46.113,30.901,47,32,47    c0.508,0,4.335,0.011,4.686,0.024c0.023,0.002,0.046,0.003,0.068,0.005h0.236c1.511,0,2.963-0.259,4.313-0.736    c-1.356-0.705-2.869-1.149-4.474-1.264h0.16c1.559,0,3.043-0.324,4.387-0.909c-1.363-0.596-2.844-0.974-4.4-1.086    C36.953,43.033,36.912,43.031,36.858,43.03"
   id="path3987" />
		<path
   class="st73"
   d="M34.3,83h-0.02h-0.006h-0.003H34.27h-0.002h-0.001h-0.002h-0.001h-0.002H34.26h-0.001h-0.004h-0.001h-0.003    h-0.003h-0.001h-0.002h-0.001h-0.002h-0.001h-0.003h-0.003l-0.001,0.001h-0.003h-0.003h-0.003h-0.001h-0.002h-0.001H34.22h-0.001    h-0.003h-0.003h-0.001H34.21h-0.001h-0.003h-0.003L34.2,83.002h-0.003h-0.001h-0.002h-0.001h-0.003h-0.003h-0.003h-0.001h-0.003    l-0.002,0.001h-0.002h-0.001h-0.002h-0.001h-0.002H34.17h-0.003h-0.001h-0.002l-0.003,0.001H34.16h-0.003    c-1.038,0.063-1.854,0.918-1.867,1.972c-0.011,0.911,0.596,1.69,1.432,1.94C32.899,86.667,32.3,85.904,32.3,85    C32.3,83.895,33.195,83,34.3,83"
   id="path3989" />
		<path
   class="st72"
   d="M41.445,86.039c-0.696,0.325-1.434,0.574-2.203,0.737c1.983,1.555,3.258,3.987,3.258,6.724    c0,3.667-2.303,6.794-5.524,7.985c0.581,0.435,1.095,0.951,1.526,1.529c3.57-1.685,5.997-5.342,5.997-9.514    C44.5,90.571,43.342,87.937,41.445,86.039"
   id="path3991" />
		<path
   class="st73"
   d="M33.731,86.918c0.001,0,0.003,0.001,0.004,0.001C33.734,86.919,33.733,86.919,33.731,86.918 M39.242,86.776    C38.551,86.923,37.834,87,37.1,87h-2.8c-0.006,0-0.012,0-0.019,0c3.49,0.1,6.219,2.949,6.219,6.5c0,3.294-2.428,6.068-5.629,6.452    C34.585,99.977,33.011,100,32.5,100c0.695,0,1.397,0.1,2.088,0.296c0.878,0.253,1.683,0.661,2.389,1.189    c3.221-1.191,5.524-4.318,5.524-7.985C42.5,90.763,41.225,88.331,39.242,86.776"
   id="path3993" />
		<path
   class="st72"
   d="M43.136,67.954c-0.652,0.407-1.343,0.76-2.065,1.054c2.637,1.435,4.43,4.253,4.43,7.492    c0,3.793-2.459,7.01-5.854,8.102c0.654,0.412,1.257,0.894,1.799,1.437c3.571-1.665,6.055-5.314,6.055-9.539    C47.5,72.981,45.776,69.86,43.136,67.954"
   id="path3995" />
		<path
   class="st73"
   d="M35.858,69.895c0.001,0,0.001,0,0.002,0.001C35.86,69.895,35.859,69.895,35.858,69.895 M35.476,69.718    c0.116,0.069,0.24,0.127,0.37,0.172C35.716,69.846,35.592,69.788,35.476,69.718 M35.456,69.706    c0.006,0.004,0.013,0.008,0.019,0.012C35.469,69.714,35.463,69.71,35.456,69.706 M35.437,69.694    c0.006,0.004,0.012,0.007,0.018,0.011C35.449,69.702,35.443,69.698,35.437,69.694 M35.417,69.682    c0.005,0.004,0.011,0.007,0.016,0.01C35.428,69.689,35.423,69.685,35.417,69.682 M35.398,69.669    c0.005,0.003,0.01,0.007,0.015,0.01C35.408,69.676,35.403,69.673,35.398,69.669 M35.379,69.657    c0.004,0.003,0.009,0.006,0.013,0.009C35.388,69.663,35.383,69.66,35.379,69.657 M35.36,69.644    c0.003,0.002,0.007,0.005,0.01,0.007C35.367,69.648,35.364,69.646,35.36,69.644 M35.341,69.63    c0.002,0.002,0.005,0.003,0.007,0.005C35.346,69.634,35.344,69.632,35.341,69.63 M41.07,69.008    c-1.387,0.564-2.89,0.909-4.469,0.989L36.498,70c0.001,0,0.001,0,0.002,0h0.6c3.529,0,6.4,2.916,6.4,6.5    c0,3.584-2.871,6.5-6.4,6.5h-2.8l0,0h0.021l0.169,0.007c1.906,0.082,3.663,0.655,5.156,1.596c3.395-1.092,5.854-4.309,5.854-8.102    C45.5,73.262,43.708,70.443,41.07,69.008 M34.613,68.665L34.613,68.665L34.613,68.665 M34.604,68.638    c0.001,0.002,0.001,0.004,0.002,0.006C34.605,68.642,34.605,68.64,34.604,68.638 M34.595,68.611    c0.001,0.004,0.003,0.008,0.004,0.012C34.598,68.619,34.597,68.615,34.595,68.611 M34.587,68.584    c0.002,0.006,0.004,0.012,0.005,0.018C34.591,68.596,34.589,68.59,34.587,68.584 M34.503,67.902    C34.501,67.934,34.5,67.967,34.5,68c0,0.202,0.03,0.398,0.086,0.582c-0.046-0.153-0.075-0.314-0.083-0.48    C34.5,68.034,34.5,67.968,34.503,67.902"
   id="path3997" />
		<path
   class="st74"
   d="M41.119,66.816C39.744,67.5,38.212,67.917,36.59,68h0.51c1.436,0,2.788,0.365,3.97,1.008    c0.722-0.294,1.413-0.647,2.065-1.054C42.511,67.503,41.836,67.12,41.119,66.816"
   id="path3999" />
		<path
   class="st75"
   d="M37.1,66h-0.6c-1.072,0-1.946,0.843-1.997,1.902c-0.003,0.066-0.003,0.133,0,0.2    c0.008,0.167,0.037,0.327,0.083,0.48c0,0.001,0,0.001,0.001,0.002c0.002,0.006,0.004,0.012,0.005,0.018    c0.001,0.003,0.002,0.006,0.003,0.009c0.001,0.004,0.003,0.008,0.004,0.012c0.002,0.005,0.003,0.01,0.005,0.015    c0.001,0.002,0.001,0.004,0.002,0.006c0.002,0.007,0.005,0.014,0.007,0.021v0c0.138,0.392,0.395,0.729,0.728,0.966    c0.002,0.002,0.005,0.003,0.007,0.005c0.004,0.003,0.008,0.006,0.012,0.008c0.003,0.002,0.007,0.005,0.01,0.007    c0.003,0.002,0.006,0.004,0.009,0.006c0.004,0.003,0.009,0.006,0.013,0.009c0.002,0.001,0.004,0.003,0.006,0.004    c0.005,0.003,0.01,0.007,0.015,0.01c0.001,0.001,0.003,0.002,0.004,0.003c0.005,0.004,0.011,0.007,0.016,0.01    c0.001,0.001,0.002,0.001,0.003,0.002c0.006,0.004,0.012,0.007,0.018,0.011c0.001,0,0.001,0.001,0.002,0.001    c0.006,0.004,0.013,0.008,0.019,0.012c0,0,0,0,0,0c0.116,0.07,0.24,0.128,0.37,0.172c0.004,0.001,0.008,0.003,0.013,0.004    c0.001,0,0.001,0,0.002,0.001c0.2,0.068,0.415,0.104,0.638,0.104l0.103-0.003c1.579-0.08,3.082-0.425,4.469-0.989    C39.888,68.365,38.536,68,37.1,68h-0.51c1.622-0.083,3.154-0.5,4.529-1.184C39.882,66.291,38.524,66,37.1,66"
   id="path4001" />
		<path
   class="st73"
   d="M33.736,86.919c0.173,0.051,0.356,0.079,0.546,0.081c-0.01,0-0.02-0.001-0.03-0.001    C34.072,86.995,33.9,86.967,33.736,86.919 M33.722,86.915c0.003,0.001,0.006,0.002,0.009,0.003    C33.728,86.917,33.725,86.916,33.722,86.915"
   id="path4003" />
		<path
   class="st74"
   d="M39.646,84.602C38.843,84.86,37.987,85,37.1,85h-2.8c1.861,0.045,3.571,0.7,4.943,1.776    c0.769-0.163,1.506-0.412,2.203-0.737C40.902,85.497,40.299,85.014,39.646,84.602"
   id="path4005" />
		<path
   class="st75"
   d="M34.32,83H34.3c-1.104,0-2,0.895-2,2c0,0.904,0.599,1.668,1.422,1.915c0.003,0.001,0.006,0.002,0.009,0.003    c0.001,0,0.003,0.001,0.004,0.001c0.164,0.048,0.337,0.076,0.515,0.08c0.01,0,0.02,0.001,0.03,0.001c0.006,0,0.012,0,0.019,0h2.8    c0.734,0,1.451-0.077,2.143-0.224C37.871,85.7,36.16,85.045,34.3,85h2.8c0.887,0,1.743-0.139,2.546-0.398    c-1.493-0.941-3.25-1.513-5.156-1.596L34.32,83"
   id="path4007" />
		<path
   class="st72"
   d="M25,0C15.626,0,8,7.626,8,17c0,1.615,0.225,3.201,0.672,4.737c0.622-0.217,1.269-0.389,1.935-0.513    C10.213,19.883,10,18.465,10,17c0-4.14,1.68-7.89,4.4-10.6C17.11,3.68,20.86,2,25,2c8.28,0,15,6.72,15,15    c0,1.465-0.213,2.883-0.607,4.225c0.666,0.124,1.312,0.296,1.935,0.513C41.775,20.202,42,18.616,42,17C42,7.626,34.374,0,25,0"
   id="path4009" />
		<path
   class="st73"
   d="M25,2c-4.14,0-7.89,1.68-10.6,4.4C11.68,9.11,10,12.86,10,17c0,1.465,0.213,2.883,0.606,4.224    c0.116-0.022,0.233-0.042,0.35-0.06c0.562-0.089,1.121-0.14,1.674-0.157C12.212,19.713,12,18.37,12,17c0-7.169,5.832-13,13-13    c7.168,0,13,5.831,13,13c0,1.37-0.212,2.713-0.631,4.007c0.553,0.017,1.113,0.069,1.674,0.158c0.117,0.019,0.234,0.039,0.351,0.06    C39.787,19.884,40,18.465,40,17C40,8.72,33.28,2,25,2"
   id="path4011" />
		<path
   class="st74"
   d="M39.393,21.225C39.215,21.833,39,22.426,38.75,23l-0.02,0.14c0.664,0.105,1.308,0.269,1.927,0.488    c0.262-0.62,0.486-1.251,0.672-1.89C40.706,21.521,40.06,21.349,39.393,21.225"
   id="path4013" />
		<path
   class="st75"
   d="M37.368,21.007c-0.131,0.404-0.281,0.802-0.452,1.196c-0.441,1.013,0.024,2.191,1.037,2.631    c0.259,0.113,0.529,0.167,0.796,0.167c0.772,0,1.508-0.45,1.835-1.203c0.025-0.056,0.049-0.113,0.073-0.17    c-0.619-0.218-1.263-0.383-1.927-0.488L38.75,23c0.25-0.574,0.465-1.166,0.643-1.775c-0.116-0.022-0.233-0.042-0.351-0.06    C38.481,21.076,37.922,21.024,37.368,21.007"
   id="path4015" />
		<path
   class="st73"
   d="M18,43c-0.042,0-4.035,0.005-4.855,0.03H18c1.099,0,1.991,0.888,2,1.985c0-0.005,0-0.01,0-0.015    C20,43.896,19.105,43,18,43"
   id="path4017" />
		<path
   class="st72"
   d="M6.507,45.283C2.874,47.723,0.49,51.872,0.49,56.51c0,4.809,2.533,9.05,6.374,11.444    c0.625-0.451,1.302-0.834,2.019-1.139C5.095,64.93,2.49,61.022,2.49,56.51c0-4.445,2.523-8.297,6.208-10.215    C7.933,46.025,7.2,45.685,6.507,45.283"
   id="path4019" />
		<path
   class="st73"
   d="M14.135,69.897C13.936,69.964,13.723,70,13.501,70l0,0C13.722,70,13.935,69.964,14.135,69.897     M14.842,69.483c-0.001,0.001-0.002,0.002-0.004,0.003C14.84,69.485,14.841,69.484,14.842,69.483 M14.86,69.466    c-0.002,0.002-0.004,0.004-0.007,0.006C14.856,69.47,14.858,69.468,14.86,69.466 M14.878,69.449    c-0.003,0.003-0.006,0.006-0.009,0.009C14.872,69.455,14.875,69.452,14.878,69.449 M14.896,69.432    c-0.004,0.004-0.007,0.007-0.011,0.011C14.888,69.44,14.892,69.436,14.896,69.432 M14.913,69.416    c-0.004,0.004-0.008,0.008-0.012,0.012C14.905,69.424,14.909,69.42,14.913,69.416 M14.93,69.398    c-0.004,0.004-0.009,0.009-0.013,0.013C14.922,69.407,14.926,69.403,14.93,69.398 M14.947,69.381    c-0.005,0.005-0.01,0.01-0.014,0.015C14.938,69.391,14.942,69.386,14.947,69.381 M14.964,69.363    c-0.005,0.005-0.01,0.01-0.015,0.016C14.954,69.374,14.959,69.368,14.964,69.363 M14.98,69.345    c-0.005,0.006-0.01,0.011-0.016,0.017C14.97,69.356,14.975,69.351,14.98,69.345 M15.281,68.911    c-0.081,0.158-0.182,0.303-0.3,0.433C15.098,69.215,15.2,69.069,15.281,68.911 M15.291,68.891    c-0.001,0.003-0.003,0.006-0.004,0.008C15.288,68.896,15.29,68.894,15.291,68.891 M15.484,67.746c0,0.001,0,0.003,0,0.004    C15.485,67.749,15.484,67.747,15.484,67.746 M15.481,67.721c0.001,0.004,0.001,0.008,0.002,0.012    C15.482,67.729,15.481,67.725,15.481,67.721 M15.477,67.696c0.001,0.006,0.002,0.012,0.003,0.018    C15.479,67.707,15.478,67.702,15.477,67.696 M15.473,67.671c0.001,0.007,0.002,0.015,0.003,0.022    C15.475,67.685,15.474,67.678,15.473,67.671 M15.469,67.646c0.001,0.008,0.003,0.016,0.004,0.024    C15.472,67.662,15.47,67.654,15.469,67.646 M15.464,67.621c0.002,0.008,0.003,0.016,0.004,0.023    C15.467,67.637,15.466,67.629,15.464,67.621 M15.46,67.597c0.002,0.008,0.003,0.016,0.005,0.024    C15.463,67.613,15.461,67.605,15.46,67.597 M15.455,67.573c0.001,0.007,0.003,0.013,0.004,0.02    C15.457,67.586,15.456,67.58,15.455,67.573 M15.449,67.549c0.001,0.006,0.003,0.013,0.004,0.019    C15.452,67.562,15.45,67.555,15.449,67.549 M15.443,67.525c0.002,0.006,0.003,0.013,0.005,0.019    C15.446,67.537,15.445,67.531,15.443,67.525 M15.437,67.501c0.001,0.006,0.003,0.012,0.005,0.018    C15.44,67.513,15.439,67.507,15.437,67.501 M15.431,67.477c0.001,0.005,0.003,0.011,0.004,0.016    C15.434,67.488,15.433,67.483,15.431,67.477 M15.425,67.454c0.001,0.005,0.003,0.01,0.004,0.014    C15.427,67.463,15.426,67.459,15.425,67.454 M15.418,67.43c0.001,0.004,0.002,0.008,0.004,0.012    C15.42,67.439,15.419,67.435,15.418,67.43 M15.411,67.407c0.001,0.004,0.002,0.007,0.003,0.011    C15.413,67.414,15.412,67.411,15.411,67.407 M15.403,67.384c0.001,0.003,0.002,0.007,0.003,0.01    C15.405,67.39,15.404,67.387,15.403,67.384 M15.396,67.361c0.001,0.003,0.002,0.006,0.003,0.009    C15.398,67.367,15.397,67.364,15.396,67.361 M15.388,67.338c0.001,0.003,0.002,0.006,0.003,0.009    C15.39,67.343,15.389,67.341,15.388,67.338 M15.38,67.315c0.001,0.003,0.002,0.006,0.003,0.008    C15.382,67.32,15.381,67.318,15.38,67.315 M15.371,67.292c0.001,0.002,0.002,0.005,0.003,0.008    C15.373,67.297,15.372,67.295,15.371,67.292 M15.362,67.269c0.001,0.002,0.002,0.005,0.003,0.007    C15.364,67.274,15.363,67.272,15.362,67.269 M15.353,67.247c0.001,0.002,0.002,0.005,0.003,0.007    C15.355,67.251,15.354,67.249,15.353,67.247 M15.344,67.224c0.001,0.002,0.002,0.005,0.003,0.007    C15.346,67.229,15.345,67.227,15.344,67.224 M15.335,67.202c0.001,0.003,0.002,0.005,0.003,0.008    C15.337,67.207,15.335,67.204,15.335,67.202 M15.325,67.18c0.001,0.003,0.002,0.005,0.004,0.008    C15.327,67.185,15.326,67.182,15.325,67.18 M15.314,67.157c0.002,0.003,0.003,0.007,0.005,0.01    C15.317,67.164,15.316,67.16,15.314,67.157 M15.304,67.135c0.002,0.004,0.004,0.008,0.005,0.011    C15.307,67.142,15.306,67.139,15.304,67.135 M15.293,67.113c0.002,0.004,0.004,0.008,0.006,0.013    C15.297,67.121,15.295,67.117,15.293,67.113 M15.282,67.091c0.002,0.005,0.005,0.01,0.007,0.015    C15.287,67.1,15.284,67.096,15.282,67.091 M15.27,67.069c0.003,0.006,0.006,0.011,0.009,0.017    C15.276,67.08,15.273,67.074,15.27,67.069 M15.259,67.047c0.003,0.006,0.007,0.012,0.01,0.019    C15.266,67.059,15.262,67.053,15.259,67.047 M8.699,46.295C5.013,48.213,2.49,52.065,2.49,56.51c0,4.512,2.605,8.421,6.393,10.305    C10.12,66.29,11.477,66,12.9,66h0.6c0.759,0,1.419,0.423,1.758,1.045c-0.322-0.591-0.934-1.006-1.656-1.043    c-5.109-0.26-9.111-4.43-9.111-9.493c0-4.948,3.853-9.104,8.747-9.48H13.01C11.5,47.03,10.048,46.771,8.699,46.295"
   id="path4021" />
		<path
   class="st72"
   d="M8.672,21.738C3.532,23.53,0,28.372,0,34.01c0,4.81,2.62,9.019,6.506,11.273    c0.666-0.448,1.374-0.837,2.117-1.162C4.726,42.426,2,38.539,2,34.01c0-4.796,3.068-8.875,7.344-10.382    C9.082,23.007,8.857,22.377,8.672,21.738"
   id="path4023" />
		<path
   class="st73"
   d="M13.035,21.001c-0.134,0-0.269,0.002-0.404,0.006c0.131,0.403,0.281,0.802,0.452,1.196    c0.44,1.013-0.023,2.191-1.037,2.631C11.788,24.947,11.518,25,11.252,25c-0.772,0-1.509-0.449-1.836-1.203    c-0.025-0.057-0.049-0.113-0.073-0.17C5.068,25.135,2,29.214,2,34.01c0,4.529,2.726,8.416,6.624,10.111    c1.364-0.596,2.846-0.974,4.403-1.086c0.024-0.002,0.065-0.004,0.119-0.005H13.01C8.042,43.03,4,38.983,4,34.01    c0-4.459,3.189-8.2,7.582-8.894c0.495-0.079,0.983-0.116,1.458-0.116c0.551,0,1.085,0.051,1.591,0.147    c0.127,0.024,0.252,0.035,0.376,0.035c0.947,0,1.779-0.672,1.959-1.632c0.204-1.085-0.511-2.131-1.596-2.335    C14.62,21.074,13.836,21.001,13.035,21.001"
   id="path4025" />
		<path
   class="st74"
   d="M10.607,21.225c-0.666,0.124-1.312,0.296-1.935,0.513c0.186,0.639,0.41,1.27,0.672,1.89    c0.619-0.218,1.263-0.383,1.927-0.488L11.25,23C11.001,22.426,10.785,21.833,10.607,21.225"
   id="path4027" />
		<path
   class="st75"
   d="M12.632,21.007c-0.553,0.017-1.113,0.069-1.674,0.157c-0.117,0.019-0.234,0.039-0.35,0.06    c0.178,0.608,0.394,1.201,0.644,1.775l0.02,0.14c-0.664,0.105-1.308,0.269-1.927,0.488c0.024,0.057,0.048,0.113,0.073,0.17    C9.743,24.551,10.48,25,11.252,25c0.266,0,0.536-0.053,0.795-0.166c1.014-0.44,1.477-1.618,1.037-2.631    C12.913,21.809,12.762,21.411,12.632,21.007"
   id="path4029" />
		<path
   class="st73"
   d="M20,45.015C19.992,46.113,19.1,47,18,47c-0.508,0-4.336,0.011-4.719,0.026    c-0.015,0.001-0.029,0.002-0.044,0.003H18c1.105,0,2-0.896,2-2C20,45.025,20,45.02,20,45.015"
   id="path4031" />
		<path
   class="st74"
   d="M8.624,44.121c-0.743,0.325-1.451,0.715-2.117,1.162c0.693,0.402,1.426,0.742,2.192,1.012    c1.356-0.706,2.868-1.149,4.471-1.265h-0.16C11.451,45.03,9.968,44.706,8.624,44.121"
   id="path4033" />
		<path
   class="st75"
   d="M18,43.03h-4.855c-0.054,0.002-0.095,0.003-0.119,0.005c-1.557,0.112-3.039,0.49-4.403,1.086    c1.344,0.585,2.827,0.909,4.386,0.909h0.16c-1.603,0.116-3.115,0.559-4.471,1.265c1.35,0.476,2.801,0.735,4.311,0.735h0.227    c0.015-0.001,0.029-0.002,0.044-0.003C13.664,47.011,17.492,47,18,47c1.099,0,1.991-0.888,2-1.985    C19.992,43.917,19.1,43.03,18,43.03"
   id="path4035" />
		<path
   class="st73"
   d="M15.688,83c-0.016,0-0.031,0-0.047,0.001H15.7c0.024,0,0.048,0,0.073,0.001C15.745,83,15.716,83,15.688,83"
   id="path4037" />
		<path
   class="st72"
   d="M8.549,86.036C6.659,87.934,5.5,90.569,5.5,93.5c0,4.173,2.429,7.831,5.996,9.515    c0.432-0.578,0.945-1.095,1.527-1.53C9.802,100.294,7.5,97.167,7.5,93.5c0-2.737,1.275-5.169,3.258-6.724    C9.987,86.612,9.247,86.362,8.549,86.036"
   id="path4039" />
		<path
   class="st73"
   d="M17.7,85c0,1.105-0.896,2-2,2h-2.8c-0.734,0-1.451-0.077-2.143-0.224C8.775,88.331,7.5,90.763,7.5,93.5    c0,3.667,2.302,6.793,5.523,7.985c0.704-0.527,1.508-0.934,2.384-1.187C16.103,100.1,16.805,100,17.5,100    c-0.511,0-2.084-0.023-2.351-0.045C11.929,99.569,9.5,96.794,9.5,93.5c0-3.561,2.745-6.416,6.22-6.5    C16.824,87,17.7,86.104,17.7,85L17.7,85"
   id="path4041" />
		<path
   class="st72"
   d="M6.864,67.954C4.224,69.86,2.5,72.981,2.5,76.5c0,4.222,2.482,7.87,6.049,9.536    c0.541-0.543,1.142-1.026,1.793-1.438C6.953,83.503,4.5,80.289,4.5,76.5c0-3.239,1.792-6.057,4.43-7.492    C8.208,68.714,7.517,68.361,6.864,67.954"
   id="path4043" />
		<path
   class="st73"
   d="M14.839,69.486c-0.202,0.182-0.441,0.323-0.704,0.411C14.398,69.809,14.637,69.668,14.839,69.486     M14.854,69.472c-0.004,0.003-0.007,0.007-0.011,0.01C14.846,69.479,14.85,69.476,14.854,69.472 M14.869,69.458    c-0.003,0.003-0.006,0.005-0.008,0.008C14.863,69.464,14.866,69.461,14.869,69.458 M14.885,69.443    c-0.002,0.002-0.004,0.004-0.006,0.006C14.88,69.447,14.882,69.445,14.885,69.443 M14.901,69.428    c-0.002,0.002-0.003,0.003-0.005,0.005C14.897,69.431,14.899,69.429,14.901,69.428 M14.917,69.411    c-0.001,0.001-0.003,0.003-0.005,0.004C14.914,69.414,14.916,69.413,14.917,69.411 M14.933,69.395    c-0.001,0.001-0.002,0.002-0.003,0.003C14.931,69.397,14.932,69.396,14.933,69.395 M14.949,69.379    c-0.001,0.001-0.001,0.001-0.002,0.002C14.948,69.38,14.948,69.379,14.949,69.379 M14.965,69.362c0,0-0.001,0.001-0.001,0.001    C14.964,69.363,14.965,69.362,14.965,69.362 M14.981,69.345C14.981,69.345,14.981,69.345,14.981,69.345L14.981,69.345     M8.929,69.008C6.292,70.443,4.5,73.262,4.5,76.5c0,3.789,2.453,7.003,5.842,8.098c1.516-0.959,3.302-1.535,5.232-1.595    c0.022-0.001,0.045-0.002,0.067-0.003H12.9c-3.529,0-6.4-2.916-6.4-6.5c0-3.584,2.871-6.5,6.4-6.5h0.6c0,0,0.001,0,0.001,0    l-0.103-0.003C11.82,69.917,10.316,69.573,8.929,69.008 M15.287,68.899c-0.002,0.004-0.004,0.008-0.006,0.012    C15.283,68.907,15.285,68.903,15.287,68.899 M15.485,67.75c0.014,0.115,0.019,0.232,0.013,0.351    c-0.014,0.284-0.087,0.55-0.206,0.789C15.425,68.623,15.5,68.32,15.5,68C15.5,67.915,15.495,67.832,15.485,67.75 M15.482,67.733    c0.001,0.005,0.001,0.009,0.002,0.014C15.484,67.742,15.483,67.737,15.482,67.733 M15.48,67.713c0,0.003,0.001,0.005,0.001,0.007    C15.48,67.718,15.48,67.716,15.48,67.713 M15.477,67.693c0,0.001,0,0.002,0,0.003C15.477,67.695,15.477,67.694,15.477,67.693     M15.473,67.67C15.473,67.67,15.473,67.671,15.473,67.67C15.473,67.671,15.473,67.67,15.473,67.67 M15.469,67.645    c0,0,0,0.001,0,0.001C15.469,67.646,15.469,67.645,15.469,67.645 M15.464,67.621C15.464,67.621,15.464,67.621,15.464,67.621    C15.464,67.621,15.464,67.621,15.464,67.621 M15.459,67.593c0,0.001,0.001,0.003,0.001,0.004    C15.459,67.596,15.459,67.594,15.459,67.593 M15.453,67.568c0,0.002,0.001,0.003,0.001,0.005    C15.454,67.571,15.454,67.57,15.453,67.568 M15.448,67.544c0,0.002,0.001,0.004,0.001,0.005    C15.449,67.547,15.448,67.545,15.448,67.544 M15.442,67.519c0,0.002,0.001,0.004,0.001,0.006    C15.443,67.523,15.442,67.521,15.442,67.519 M15.435,67.493c0.001,0.003,0.001,0.005,0.002,0.008    C15.437,67.498,15.436,67.496,15.435,67.493 M15.429,67.468c0.001,0.003,0.002,0.006,0.003,0.009    C15.43,67.474,15.429,67.471,15.429,67.468 M15.421,67.443c0.001,0.004,0.002,0.007,0.003,0.011    C15.424,67.45,15.423,67.447,15.421,67.443 M15.414,67.418c0.001,0.004,0.002,0.008,0.004,0.012    C15.417,67.426,15.415,67.422,15.414,67.418 M15.407,67.394c0.001,0.004,0.003,0.009,0.004,0.013    C15.409,67.403,15.408,67.398,15.407,67.394 M15.399,67.37c0.002,0.005,0.003,0.009,0.005,0.014    C15.402,67.379,15.4,67.375,15.399,67.37 M15.391,67.346c0.002,0.005,0.003,0.01,0.005,0.014    C15.394,67.356,15.392,67.351,15.391,67.346 M15.383,67.323c0.002,0.005,0.004,0.01,0.005,0.015    C15.386,67.333,15.384,67.328,15.383,67.323 M15.374,67.3c0.002,0.005,0.004,0.01,0.006,0.015    C15.378,67.31,15.376,67.305,15.374,67.3 M15.365,67.276c0.002,0.005,0.004,0.01,0.006,0.016    C15.369,67.287,15.367,67.282,15.365,67.276 M15.356,67.254c0.002,0.005,0.004,0.01,0.006,0.016    C15.36,67.264,15.358,67.259,15.356,67.254 M15.347,67.231c0.002,0.005,0.004,0.01,0.006,0.015    C15.351,67.242,15.349,67.237,15.347,67.231 M15.338,67.209c0.002,0.005,0.004,0.01,0.006,0.015    C15.342,67.219,15.34,67.214,15.338,67.209 M15.328,67.188c0.002,0.005,0.004,0.009,0.006,0.014    C15.332,67.197,15.33,67.192,15.328,67.188 M15.319,67.167c0.002,0.004,0.004,0.008,0.006,0.013    C15.323,67.175,15.321,67.171,15.319,67.167 M15.309,67.146c0.002,0.004,0.004,0.007,0.005,0.011    C15.313,67.153,15.311,67.15,15.309,67.146 M15.299,67.125c0.002,0.003,0.003,0.006,0.005,0.01    C15.302,67.132,15.301,67.129,15.299,67.125 M15.289,67.105c0.001,0.003,0.003,0.005,0.004,0.008    C15.292,67.11,15.29,67.108,15.289,67.105 M15.279,67.085c0.001,0.002,0.002,0.004,0.003,0.005    C15.281,67.089,15.28,67.087,15.279,67.085 M15.269,67.066c0,0.001,0.001,0.002,0.002,0.003    C15.27,67.068,15.269,67.067,15.269,67.066 M15.258,67.046c0,0,0,0.001,0.001,0.001C15.259,67.047,15.258,67.046,15.258,67.046"
   id="path4045" />
		<path
   class="st74"
   d="M8.883,66.815c-0.717,0.304-1.394,0.687-2.019,1.139c0.652,0.407,1.343,0.76,2.065,1.054    C10.112,68.365,11.464,68,12.9,68h0.51C11.79,67.917,10.259,67.5,8.883,66.815"
   id="path4047" />
		<path
   class="st75"
   d="M13.5,66h-0.6c-1.423,0-2.781,0.29-4.017,0.815C10.259,67.5,11.79,67.917,13.41,68H12.9    c-1.436,0-2.788,0.365-3.97,1.008c1.387,0.564,2.89,0.909,4.469,0.989L13.501,70c0.221,0,0.434-0.036,0.633-0.103    c0.263-0.088,0.502-0.229,0.704-0.411c0.001-0.001,0.002-0.002,0.004-0.003c0.004-0.003,0.008-0.007,0.011-0.01    c0.002-0.002,0.005-0.004,0.007-0.006c0.003-0.003,0.006-0.005,0.008-0.008c0.003-0.003,0.006-0.006,0.009-0.009    c0.002-0.002,0.004-0.004,0.006-0.006c0.004-0.004,0.007-0.007,0.011-0.011c0.002-0.002,0.003-0.003,0.005-0.005    c0.004-0.004,0.008-0.008,0.012-0.012c0.002-0.001,0.003-0.003,0.005-0.004c0.004-0.004,0.009-0.009,0.013-0.013    c0.001-0.001,0.002-0.002,0.003-0.003c0.005-0.005,0.01-0.01,0.014-0.015c0.001-0.001,0.001-0.001,0.002-0.002    c0.005-0.005,0.01-0.01,0.015-0.016c0,0,0.001-0.001,0.001-0.001c0.005-0.006,0.01-0.011,0.016-0.017c0,0,0,0,0,0    c0.118-0.13,0.219-0.276,0.3-0.433c0.002-0.004,0.004-0.008,0.006-0.012c0.001-0.003,0.003-0.006,0.004-0.008    c0.119-0.239,0.192-0.506,0.206-0.789c0.006-0.119,0.002-0.237-0.013-0.351c0-0.001,0-0.003,0-0.004    c-0.001-0.005-0.001-0.009-0.002-0.014c0-0.004-0.001-0.008-0.002-0.012c0-0.003-0.001-0.005-0.001-0.007    c-0.001-0.006-0.002-0.012-0.003-0.018c0-0.001,0-0.002,0-0.003c-0.001-0.007-0.002-0.015-0.003-0.022c0,0,0,0,0,0    c-0.001-0.008-0.003-0.016-0.004-0.024c0,0,0-0.001,0-0.001c-0.001-0.008-0.003-0.016-0.004-0.023c0,0,0,0,0,0    c-0.002-0.008-0.003-0.016-0.005-0.024c0-0.001,0-0.003-0.001-0.004c-0.001-0.007-0.003-0.013-0.004-0.02    c0-0.002-0.001-0.003-0.001-0.005c-0.001-0.006-0.003-0.013-0.004-0.019c0-0.002-0.001-0.004-0.001-0.005    c-0.001-0.006-0.003-0.013-0.005-0.019c0-0.002-0.001-0.004-0.001-0.006c-0.002-0.006-0.003-0.012-0.005-0.018    c-0.001-0.003-0.001-0.005-0.002-0.008c-0.001-0.005-0.003-0.011-0.004-0.016c-0.001-0.003-0.002-0.006-0.003-0.009    c-0.001-0.005-0.003-0.01-0.004-0.014c-0.001-0.004-0.002-0.007-0.003-0.011c-0.001-0.004-0.002-0.008-0.004-0.012    c-0.001-0.004-0.003-0.008-0.004-0.012c-0.001-0.004-0.002-0.007-0.003-0.011c-0.001-0.005-0.003-0.009-0.004-0.013    c-0.001-0.003-0.002-0.007-0.003-0.01c-0.001-0.005-0.003-0.009-0.005-0.014c-0.001-0.003-0.002-0.006-0.003-0.009    c-0.002-0.005-0.003-0.01-0.005-0.014c-0.001-0.003-0.002-0.006-0.003-0.009c-0.002-0.005-0.004-0.01-0.005-0.015    c-0.001-0.003-0.002-0.006-0.003-0.008c-0.002-0.005-0.004-0.01-0.006-0.015c-0.001-0.003-0.002-0.005-0.003-0.008    c-0.002-0.005-0.004-0.01-0.006-0.016c-0.001-0.002-0.002-0.005-0.003-0.007c-0.002-0.005-0.004-0.01-0.006-0.016    c-0.001-0.002-0.002-0.005-0.003-0.007c-0.002-0.005-0.004-0.01-0.006-0.015c-0.001-0.002-0.002-0.005-0.003-0.007    c-0.002-0.005-0.004-0.01-0.006-0.015c-0.001-0.003-0.002-0.005-0.003-0.008c-0.002-0.005-0.004-0.009-0.006-0.014    c-0.001-0.003-0.002-0.005-0.004-0.008c-0.002-0.004-0.004-0.008-0.006-0.013c-0.001-0.003-0.003-0.007-0.005-0.01    c-0.002-0.004-0.003-0.007-0.005-0.011c-0.002-0.004-0.004-0.008-0.005-0.011c-0.002-0.003-0.003-0.006-0.005-0.01    c-0.002-0.004-0.004-0.008-0.006-0.013c-0.001-0.003-0.003-0.005-0.004-0.008c-0.002-0.005-0.005-0.01-0.007-0.015    c-0.001-0.002-0.002-0.004-0.003-0.005c-0.003-0.006-0.006-0.011-0.009-0.017c0-0.001-0.001-0.002-0.002-0.003    c-0.003-0.006-0.007-0.012-0.01-0.019c0,0,0-0.001-0.001-0.001C14.919,66.423,14.259,66,13.5,66"
   id="path4049" />
		<path
   class="st73"
   d="M15.773,83.001C16.799,83.048,17.7,83.929,17.7,85l0,0C17.7,83.92,16.844,83.04,15.773,83.001"
   id="path4051" />
		<path
   class="st74"
   d="M10.342,84.598c-0.651,0.412-1.252,0.895-1.793,1.438c0.698,0.326,1.438,0.576,2.208,0.74    C12.129,85.7,13.839,85.045,15.7,85h-2.8C12.008,85,11.149,84.859,10.342,84.598"
   id="path4053" />
		<path
   class="st75"
   d="M15.7,83h-0.059c-0.022,0.001-0.045,0.001-0.067,0.003c-1.93,0.061-3.717,0.636-5.232,1.595    C11.149,84.859,12.008,85,12.9,85h2.8c-1.861,0.045-3.571,0.7-4.942,1.776C11.449,86.923,12.166,87,12.9,87h2.8    c1.105,0,2-0.896,2-2c0-1.071-0.902-1.952-1.928-1.998C15.749,83.001,15.724,83,15.7,83"
   id="path4055" />
		<path
   class="st72"
   d="M11.496,103.015C10.551,104.282,10,105.846,10,107.5c0,4.135,3.364,7.5,7.5,7.5H23v-2h-5.5    c-3.04,0-5.5-2.46-5.5-5.5c0-1.467,0.57-2.798,1.502-3.782C12.802,103.552,12.131,103.315,11.496,103.015 M38.503,103.014    c-0.635,0.3-1.305,0.537-2.006,0.704C37.429,104.701,38,106.032,38,107.5c0,3.04-2.46,5.5-5.5,5.5H27v2h5.5    c4.135,0,7.5-3.364,7.5-7.5C40,105.846,39.449,104.281,38.503,103.014"
   id="path4057" />
		<path
   class="st73"
   d="M13.502,103.718C12.57,104.702,12,106.033,12,107.5c0,3.04,2.46,5.5,5.5,5.5H23v-2h-5.5    c-1.93,0-3.5-1.57-3.5-3.5c0-1.551,1.034-2.932,2.508-3.357C16.842,104.048,17.175,104,17.5,104c-0.022,0-2.312-0.009-2.839-0.075    C14.267,103.877,13.88,103.808,13.502,103.718 M36.497,103.717c-0.381,0.091-0.771,0.161-1.169,0.208    C34.81,103.991,32.523,104,32.5,104c0.325,0,0.658,0.048,0.986,0.142C34.966,104.569,36,105.949,36,107.5    c0,1.93-1.571,3.5-3.5,3.5H27v2h5.5c3.04,0,5.5-2.46,5.5-5.5C38,106.032,37.429,104.701,36.497,103.717"
   id="path4059" />
		<polyline
   class="st74"
   points="27,113 25,113 23,113 23,115 27,115 27,113   "
   id="polyline4061" />
		<polyline
   class="st75"
   points="27,111 23,111 23,113 25,113 27,113 27,111   "
   id="polyline4063" />
		<path
   class="st74"
   d="M36.976,101.485c-0.6,0.222-1.232,0.377-1.886,0.455c-0.32,0.04-0.65,0.06-0.99,0.06l-0.06,0.22    c0.951,0.274,1.795,0.798,2.457,1.497c0.7-0.167,1.371-0.404,2.006-0.704C38.071,102.436,37.558,101.92,36.976,101.485"
   id="path4065" />
		<path
   class="st75"
   d="M32.5,100L32.5,100c-1.105,0-2,0.896-2,2c0,1.105,0.896,2,2,2l0,0c0.023,0,2.31-0.009,2.828-0.074    c0.397-0.048,0.787-0.118,1.169-0.208c-0.662-0.699-1.506-1.223-2.457-1.497L34.1,102c0.34,0,0.67-0.02,0.99-0.06    c0.655-0.078,1.286-0.233,1.886-0.455c-0.705-0.528-1.51-0.936-2.389-1.189C33.897,100.1,33.195,100,32.5,100"
   id="path4067" />
		<path
   class="st74"
   d="M13.023,101.485c-0.581,0.435-1.095,0.952-1.527,1.53c0.635,0.3,1.306,0.537,2.006,0.703    c0.662-0.699,1.507-1.224,2.458-1.498L15.9,102c-0.34,0-0.67-0.02-0.99-0.06C14.255,101.862,13.623,101.707,13.023,101.485"
   id="path4069" />
		<path
   class="st75"
   d="M17.5,100c-0.695,0-1.397,0.1-2.094,0.298c-0.876,0.253-1.679,0.66-2.384,1.187    c0.6,0.222,1.232,0.377,1.887,0.455c0.32,0.04,0.65,0.06,0.99,0.06l0.06,0.22c-0.951,0.274-1.796,0.799-2.458,1.498    c0.378,0.09,0.765,0.159,1.159,0.207C15.188,103.991,17.478,104,17.5,104l0,0c1.104,0,2-0.896,2-2    C19.5,100.896,18.604,100,17.5,100L17.5,100"
   id="path4071" />
		<path
   class="st73"
   d="M13.001,30.999c-0.734,0-1.44,0.406-1.79,1.106c-0.494,0.988-0.094,2.189,0.894,2.684L23,40.236v-4.472    l-9.105-4.553C13.607,31.067,13.302,30.999,13.001,30.999 M36.999,30.999c-0.3,0-0.606,0.068-0.894,0.212L27,35.764v4.472    l10.894-5.447c0.988-0.494,1.389-1.695,0.895-2.684C38.439,31.405,37.733,30.999,36.999,30.999"
   id="path4073" />
		<path
   class="st75"
   d="M27,35.764l-2,1l-2-1v4.472l1.106,0.553C24.387,40.93,24.694,41,25,41c0.307,0,0.613-0.07,0.895-0.211    L27,40.236V35.764"
   id="path4075" />
		<path
   class="st73"
   d="M13.001,53.999c-0.734,0-1.44,0.406-1.79,1.107c-0.494,0.988-0.094,2.189,0.894,2.684L23,63.236v-4.472    l-9.105-4.553C13.607,54.067,13.302,53.999,13.001,53.999 M36.999,53.999c-0.301,0-0.606,0.068-0.894,0.212L27,58.764v4.472    l10.894-5.447c0.988-0.494,1.389-1.695,0.895-2.684C38.439,54.405,37.733,53.999,36.999,53.999"
   id="path4077" />
		<path
   class="st75"
   d="M27,58.764l-2,1l-2-1v4.472l1.106,0.553C24.387,63.93,24.694,64,25,64c0.307,0,0.613-0.07,0.895-0.211    L27,63.236V58.764"
   id="path4079" />
		<path
   class="st73"
   d="M15.001,73.999c-0.734,0-1.439,0.407-1.79,1.107c-0.494,0.988-0.094,2.189,0.895,2.684L23,82.237v-4.473    l-7.106-3.553C15.607,74.067,15.302,73.999,15.001,73.999 M34.999,73.999c-0.3,0-0.606,0.068-0.893,0.212L27,77.763v4.473    l8.895-4.447c0.988-0.494,1.388-1.696,0.894-2.684C36.439,74.406,35.733,73.999,34.999,73.999"
   id="path4081" />
		<path
   class="st75"
   d="M27,77.763l-2,1l-2-1v4.473l1.106,0.553C24.387,82.93,24.694,83,25,83c0.307,0,0.613-0.071,0.895-0.211    L27,82.237V77.763"
   id="path4083" />
		<path
   class="st73"
   d="M17.001,90.999c-0.734,0-1.44,0.407-1.79,1.107c-0.494,0.988-0.094,2.189,0.894,2.684L23,98.236v-4.473    l-5.105-2.553C17.607,91.067,17.302,90.999,17.001,90.999 M32.999,90.999c-0.301,0-0.606,0.068-0.894,0.212L27,93.764v4.473    l6.894-3.447c0.988-0.494,1.389-1.695,0.895-2.684C34.439,91.405,33.733,90.999,32.999,90.999"
   id="path4085" />
		<path
   class="st75"
   d="M27,93.764l-2,1l-2-1v4.473l1.106,0.553C24.387,98.93,24.694,99,25,99c0.307,0,0.613-0.07,0.895-0.211    L27,98.236V93.764"
   id="path4087" />
	</g>
</g>
</svg>